<svg width="228" height="51" viewBox="0 0 228 51" fill="none" xmlns="http://www.w3.org/2000/svg">
<path d="M214.667 0H8.38697L0 6.47368V36H206.08L214.667 28.4211V0Z" fill="#D7191B"/>
<path d="M14.4844 11.5054H19.9792L22.2317 18.7059L23.8333 13.719L25.9036 20.0862L24.263 25.3466L24.25 25.3335H19.4453L14.4844 11.5054ZM23.9114 11.5054H29.3412L33.7942 25.3335H28.5729L23.9114 11.5054ZM34.3672 24.4742L31.9453 17.0262L33.4948 11.5054H38.8854L34.3672 24.4742ZM48.1753 25.3335H45.8706L42.4201 21.883V14.9559L45.8706 11.5054H48.1753V25.3335ZM49.0868 19.7866V17.3778H52.1206V14.9559H49.0868V11.5054H53.9696L57.4201 14.9559V19.7866H49.0868ZM49.0868 25.3335V22.1043H56.8212V23.6018L55.1024 25.3335H49.0868ZM68.1162 6.23193V25.3335H62.361V6.23193H68.1162ZM71.6058 14.9559H69.0277V13.2111L70.7204 11.5054H73.8714L77.335 14.9559V21.883L73.8714 25.3335H69.0277V22.1043H71.6058V14.9559ZM82.4712 8.05485H88.591L93.2264 15.7371L96.8722 9.48713V18.1851L92.7186 25.3335L82.4712 8.05485ZM97.7186 25.3335V8.05485H103.474V25.3335H97.7186ZM82.4582 25.3335V9.65641L87.8358 18.6799V25.3335H82.4582ZM117.946 25.3335V14.9559H109.756V13.2371L111.488 11.5054H120.121L123.571 14.9559V25.3335H117.946ZM117.035 17.2866V19.6824H114.066V22.1043H117.035V23.6278L115.316 25.3335H110.915L108.597 23.0548V19.5914L110.915 17.2866H117.035ZM131.663 11.5054H133.968V16.3882H140.531L143.525 19.409V22.1043L140.309 25.3335H137.769V20.1122H131.546L128.551 17.2346V14.6043L131.663 11.5054ZM134.307 22.7944H136.859V25.3335L130.934 25.3204L128.538 22.4819V21.3751H134.307V22.7944ZM137.769 14.0444H134.879V11.5054H140.999L143.056 13.5627V15.1252H137.769V14.0444ZM154.183 21.883H157.984V25.3335H151.891L148.427 21.883V14.9559H147.281V11.5054H148.427V10.008L154.183 8.05485V21.883ZM155.093 14.9559V11.5054H158.192V14.9559H155.093ZM168.316 25.3335H166.011L162.56 21.883V14.9559L166.011 11.5054H168.316V25.3335ZM169.227 19.7866V17.3778H172.261V14.9559H169.227V11.5054H174.109L177.56 14.9559V19.7866H169.227ZM169.227 25.3335V22.1043H176.961V23.6018L175.243 25.3335H169.227ZM191.629 14.9559H189.181V13.4455L191.108 11.5054H194.597L197.397 14.7346V18.3152H191.629V14.9559ZM182.501 25.3335V11.5054H188.256V25.3335H182.501Z" fill="white"/>
<path d="M194.896 42.7878C195.387 42.6982 195.648 42.3149 195.54 41.8753C194.217 36.5662 196.288 32.1588 200.663 29.876L206.128 37.1358C206.173 37.1921 206.173 37.2429 206.109 37.2782C206.059 37.3114 206.011 37.2937 205.957 37.264L203.856 35.97C202.487 35.132 201.081 35.2758 200.225 36.2214C199.259 37.2985 199.615 38.625 201.151 39.6905L207.259 43.8697C211.872 47.0276 216.389 47.5248 220.668 45.3204C225.788 42.6926 226.939 37.8966 223.184 32.9052L221.428 30.5805C219.589 28.1168 217.183 27.365 214.917 28.4933C214.047 27.8561 212.959 27.7604 211.952 28.273C211.604 28.4542 211.288 28.694 210.999 28.9801C210.055 28.2912 208.857 28.1744 207.797 28.7081C207.513 28.854 207.257 29.0461 207.023 29.2604L204.353 25.7222C203.341 24.3716 201.645 24.003 200.213 24.7345C198.771 25.4805 198.428 26.891 199.44 28.2416L199.628 28.491C194.653 31.1088 192.12 36.2354 193.768 42.1276C193.889 42.5649 194.419 42.8752 194.896 42.7878ZM219.616 43.824C216.241 45.5698 212.6 45.5186 208.389 42.6402L202.288 38.4852C201.637 38.0546 201.499 37.5565 201.855 37.1456C202.187 36.7512 202.797 36.7698 203.379 37.11L207.453 39.5025C208.14 39.9021 208.633 39.8756 209.059 39.6568C209.563 39.4004 209.66 38.8525 209.288 38.3656L200.98 27.3157C200.632 26.8629 200.757 26.3614 201.247 26.1072C201.749 25.8509 202.323 26.0021 202.671 26.4548L208.604 34.3386C208.887 34.713 209.46 34.8134 209.885 34.5946C210.296 34.378 210.417 33.9152 210.14 33.553L208.001 30.7049C208.155 30.5161 208.38 30.3161 208.624 30.189C209.231 29.8785 209.852 30.0473 210.273 30.6028L212.147 33.0865C212.432 33.4729 212.999 33.549 213.411 33.3325C213.811 33.1302 213.981 32.6852 213.679 32.2886L212.159 30.2821C212.309 30.081 212.533 29.881 212.779 29.754C213.384 29.4434 214.007 29.6124 214.427 30.1678L215.672 31.8244C215.975 32.2208 216.541 32.2969 216.952 32.0802C217.353 31.8781 217.505 31.423 217.221 31.0365L216.289 29.8129C217.373 29.2626 218.72 29.914 219.993 31.6169L221.464 33.5549C224.683 37.8441 223.895 41.6196 219.616 43.824Z" fill="#DFF206"/>
</svg>
