<svg width="35" height="35" viewBox="0 0 35 35" fill="none" xmlns="http://www.w3.org/2000/svg">
<path d="M14.7896 12.1308C14.7844 11.5947 14.9385 11.0692 15.2323 10.6207C15.5261 10.1723 15.9464 9.82112 16.4399 9.61169C16.9334 9.40227 17.478 9.34401 18.0046 9.4443C18.5313 9.54459 19.0163 9.79891 19.3983 10.1751C19.7803 10.5512 20.0421 11.0323 20.1505 11.5573C20.2589 12.0823 20.2091 12.6277 20.0073 13.1244C19.8055 13.6211 19.4609 14.0468 19.017 14.3474C18.5732 14.6481 18.0501 14.8103 17.514 14.8135C17.1589 14.8164 16.8067 14.7493 16.4776 14.616C16.1485 14.4827 15.8489 14.2859 15.5959 14.0367C15.3428 13.7876 15.1414 13.491 15.0031 13.164C14.8647 12.837 14.7922 12.4859 14.7896 12.1308Z" fill="white"/>
<path d="M30.2273 0H4.77273C3.50692 0 2.29296 0.502839 1.3979 1.3979C0.502839 2.29296 0 3.50692 0 4.77273L0 30.2273C0 31.4931 0.502839 32.707 1.3979 33.6021C2.29296 34.4972 3.50692 35 4.77273 35H30.2273C31.4931 35 32.707 34.4972 33.6021 33.6021C34.4972 32.707 35 31.4931 35 30.2273V4.77273C35 3.50692 34.4972 2.29296 33.6021 1.3979C32.707 0.502839 31.4931 0 30.2273 0ZM17.5219 6.5625C18.6167 6.56604 19.6859 6.89411 20.5943 7.50521C21.5027 8.11632 22.2095 8.98304 22.6253 9.99579C23.0412 11.0085 23.1475 12.1219 22.9307 13.195C22.714 14.2682 22.1839 15.2529 21.4075 16.0249C20.6311 16.7968 19.6433 17.3212 18.5689 17.5318C17.4946 17.7424 16.3819 17.6297 15.3715 17.208C14.3612 16.7864 13.4985 16.0746 12.8927 15.1627C12.2868 14.2508 11.9649 13.1798 11.9676 12.0849C11.9697 11.3576 12.115 10.6379 12.3953 9.96672C12.6755 9.29557 13.0852 8.6862 13.601 8.17339C14.1168 7.66058 14.7285 7.25438 15.4012 6.97799C16.074 6.70159 16.7946 6.56041 17.5219 6.5625ZM23.7224 19.8088C23.0452 20.4925 22.2276 21.0211 21.3261 21.358C20.4481 21.6734 19.5343 21.8785 18.6057 21.9685C18.7449 22.1196 18.8045 22.1952 18.9 22.2827C20.1588 23.5474 21.4236 24.8082 22.6784 26.079C22.8783 26.2607 23.0139 26.5024 23.0648 26.7677C23.1157 27.0331 23.0792 27.3077 22.9608 27.5506C22.8395 27.8163 22.643 28.0406 22.3956 28.1957C22.1482 28.3509 21.8607 28.4301 21.5688 28.4236C21.2273 28.389 20.9114 28.2271 20.6838 27.9702C19.7332 27.0136 18.7648 26.075 17.8341 25.1006C17.5636 24.8162 17.4364 24.8699 17.1938 25.1165C16.2372 26.1108 15.2648 27.0693 14.2884 28.0338C14.1072 28.235 13.8641 28.3701 13.5976 28.4176C13.3311 28.4651 13.0563 28.4225 12.8168 28.2963C12.5568 28.1755 12.3374 27.982 12.185 27.7392C12.0325 27.4964 11.9536 27.2148 11.9577 26.9281C11.9869 26.5732 12.1522 26.2433 12.419 26.0074C13.6666 24.7625 14.9108 23.5163 16.1517 22.2688C16.2352 22.1852 16.3108 22.0977 16.4321 21.9705C14.7358 21.7935 13.2065 21.3739 11.898 20.3517C11.7316 20.2274 11.5716 20.0947 11.4187 19.954C10.846 19.4051 10.7884 18.7747 11.2418 18.1244C11.6295 17.5696 12.2798 17.4205 12.958 17.7386C13.0858 17.8042 13.2082 17.88 13.3239 17.9653C14.5367 18.789 15.9659 19.2356 17.4319 19.249C18.8979 19.2625 20.3351 18.8422 21.5628 18.0409C21.7968 17.8495 22.0675 17.708 22.3582 17.6253C22.6284 17.5464 22.9173 17.5603 23.1786 17.6648C23.44 17.7694 23.6588 17.9585 23.8 18.202C24.1679 18.7847 24.1639 19.3554 23.7224 19.8088Z" fill="white"/>
</svg>
