<svg width="35" height="35" viewBox="0 0 35 35" fill="none" xmlns="http://www.w3.org/2000/svg">
<path id="Vector" d="M31.5707 23.8675L26.6218 23.3025C26.0399 23.2341 25.4501 23.2985 24.8967 23.4909C24.3432 23.6832 23.8406 23.9985 23.4265 24.413L19.8415 27.998C14.3105 25.185 9.8148 20.6893 7.00179 15.1583L10.6063 11.5538C11.4441 10.716 11.8532 9.547 11.7168 8.35849L11.1518 3.44861C11.0413 2.49815 10.5852 1.6215 9.87025 0.985578C9.15528 0.349654 8.23142 -0.00113445 7.27456 2.75633e-06H3.90389C1.70224 2.75633e-06 -0.129228 1.83147 0.00715728 4.03312C1.03979 20.6722 14.3471 33.96 30.9667 34.9927C33.1683 35.129 34.9998 33.2976 34.9998 31.0959V27.7253C35.0193 25.7574 33.5385 24.1013 31.5707 23.8675Z" fill="white"/>
</svg>
