<svg width="35" height="35" viewBox="0 0 35 35" fill="none" xmlns="http://www.w3.org/2000/svg">
<path d="M22.8778 0H12.1398C2.33275 0 0 2.33275 0 12.1222V22.8602C0 32.6655 2.31525 35 12.1222 35H22.8602C32.6655 35 35 32.6847 35 22.8778V12.1398C35 2.33275 32.6847 0 22.8778 0ZM28.2555 24.9725H25.7023C24.7362 24.9725 24.4457 24.1903 22.7132 22.4578C21.2013 21 20.5625 20.818 20.1793 20.818C19.6508 20.818 19.5055 20.9632 19.5055 21.693V23.989C19.5055 24.6103 19.3043 24.9743 17.682 24.9743C16.1076 24.8684 14.5809 24.3901 13.2275 23.5787C11.8742 22.7672 10.733 21.6459 9.898 20.307C7.91555 17.8395 6.53615 14.9435 5.8695 11.8492C5.8695 11.466 6.01475 11.1195 6.7445 11.1195H9.296C9.95225 11.1195 10.1885 11.4117 10.4457 12.0855C11.6847 15.7325 13.7987 18.9035 14.6562 18.9035C14.9852 18.9035 15.1288 18.7582 15.1288 17.9375V14.182C15.0203 12.4688 14.1102 12.3235 14.1102 11.704C14.1219 11.5406 14.1968 11.3882 14.319 11.2791C14.4412 11.1699 14.6011 11.1127 14.7648 11.1195H18.7757C19.3235 11.1195 19.5055 11.3925 19.5055 12.0487V17.1168C19.5055 17.6645 19.7418 17.8465 19.9062 17.8465C20.2353 17.8465 20.489 17.6645 21.091 17.0625C22.384 15.4857 23.4404 13.7289 24.227 11.8475C24.3074 11.6215 24.4595 11.428 24.6602 11.2966C24.8608 11.1651 25.099 11.103 25.3382 11.1195H27.8915C28.6562 11.1195 28.819 11.5028 28.6562 12.0487C27.7279 14.1285 26.5791 16.1027 25.2297 17.9375C24.955 18.3575 24.8447 18.5763 25.2297 19.068C25.4835 19.4513 26.3778 20.1985 26.9797 20.909C27.8546 21.7816 28.5811 22.7912 29.1305 23.898C29.3493 24.6085 28.9835 24.9725 28.2555 24.9725Z" fill="white"/>
</svg>
