<svg width="35" height="25" viewBox="0 0 35 25" fill="none" xmlns="http://www.w3.org/2000/svg">
<path id="Vector" d="M14 17.75L23.0825 12.5L14 7.25V17.75ZM34.23 4.0475C34.4575 4.87 34.615 5.9725 34.72 7.3725C34.8425 8.7725 34.895 9.98 34.895 11.03L35 12.5C35 16.3325 34.72 19.15 34.23 20.9525C33.7925 22.5275 32.7775 23.5425 31.2025 23.98C30.38 24.2075 28.875 24.365 26.565 24.47C24.29 24.5925 22.2075 24.645 20.2825 24.645L17.5 24.75C10.1675 24.75 5.6 24.47 3.7975 23.98C2.2225 23.5425 1.2075 22.5275 0.77 20.9525C0.5425 20.13 0.385 19.0275 0.28 17.6275C0.1575 16.2275 0.105 15.02 0.105 13.97L0 12.5C0 8.6675 0.28 5.85 0.77 4.0475C1.2075 2.4725 2.2225 1.4575 3.7975 1.02C4.62 0.7925 6.125 0.635 8.435 0.53C10.71 0.4075 12.7925 0.355 14.7175 0.355L17.5 0.25C24.8325 0.25 29.4 0.53 31.2025 1.02C32.7775 1.4575 33.7925 2.4725 34.23 4.0475Z" fill="white"/>
</svg>
