<svg style="display: none;" aria-hidden="true" xmlns="http://www.w3.org/2000/svg" xmlns:xlink="http://www.w3.org/1999/xlink"><symbol viewBox="0 0 30 24" fill="none" id="svg-e-mail"><path d="M27 0H3C1.35 0 0 1.35 0 3V21C0 22.65 1.35 24 3 24H27C28.65 24 30 22.65 30 21V3C30 1.35 28.65 0 27 0ZM26.4 6.375L16.59 12.51C15.615 13.125 14.385 13.125 13.41 12.51L3.6 6.375C3.44959 6.29057 3.31788 6.17649 3.21283 6.03968C3.10779 5.90287 3.03159 5.74617 2.98886 5.57906C2.94613 5.41195 2.93775 5.2379 2.96423 5.06746C2.99072 4.89702 3.0515 4.73372 3.14292 4.58745C3.23434 4.44118 3.35449 4.31498 3.49609 4.21649C3.63769 4.118 3.79781 4.04927 3.96674 4.01445C4.13568 3.97963 4.30992 3.97945 4.47893 4.01392C4.64794 4.04839 4.8082 4.1168 4.95 4.215L15 10.5L25.05 4.215C25.1918 4.1168 25.3521 4.04839 25.5211 4.01392C25.6901 3.97945 25.8643 3.97963 26.0333 4.01445C26.2022 4.04927 26.3623 4.118 26.5039 4.21649C26.6455 4.31498 26.7657 4.44118 26.8571 4.58745C26.9485 4.73372 27.0093 4.89702 27.0358 5.06746C27.0622 5.2379 27.0539 5.41195 27.0111 5.57906C26.9684 5.74617 26.8922 5.90287 26.7872 6.03968C26.6821 6.17649 26.5504 6.29057 26.4 6.375Z" fill="#fff"/></symbol><symbol viewBox="0 0 35 35" fill="none" id="svg-git-hub"><path d="M17.5 0.729004C7.83125 0.729004 0 8.429 0 17.9257C0 25.525 5.01375 31.9694 11.9656 34.2415C12.8406 34.4034 13.1615 33.8711 13.1615 33.4146C13.1615 33.0063 13.1469 31.9242 13.1396 30.4907C8.27167 31.5275 7.245 28.1836 7.245 28.1836C6.44875 26.1988 5.29812 25.668 5.29812 25.668C3.71292 24.6019 5.42063 24.6238 5.42063 24.6238C7.17792 24.7434 8.10104 26.3957 8.10104 26.3957C9.66146 29.025 12.1975 28.2653 13.1979 27.8263C13.3554 26.7136 13.806 25.9567 14.3063 25.5265C10.4198 25.0963 6.335 23.6175 6.335 17.0288C6.335 15.1519 7.01313 13.6178 8.13604 12.4146C7.93917 11.98 7.34854 10.2315 8.28917 7.86317C8.28917 7.86317 9.75479 7.40234 13.1017 9.6263C14.5017 9.24421 15.9892 9.05463 17.4767 9.04588C18.9642 9.05463 20.4517 9.24421 21.8517 9.6263C25.1767 7.40234 26.6423 7.86317 26.6423 7.86317C27.5829 10.2315 26.9923 11.98 26.8173 12.4146C27.9329 13.6178 28.611 15.1519 28.611 17.0288C28.611 23.635 24.5204 25.089 20.6267 25.5119C21.2392 26.0282 21.8079 27.0825 21.8079 28.694C21.8079 30.9953 21.786 32.8444 21.786 33.403C21.786 33.8536 22.0923 34.3917 22.9892 34.2196C29.9906 31.9621 35 25.5134 35 17.9257C35 8.429 27.1644 0.729004 17.5 0.729004Z" fill="#fff"/></symbol><symbol viewBox="0 0 228 51" fill="none" id="svg-logo"><path d="M214.667 0H8.38697L0 6.47368V36H206.08L214.667 28.4211V0Z" fill="#D7191B"/><path d="M14.4844 11.5054H19.9792L22.2317 18.7059L23.8333 13.719L25.9036 20.0862L24.263 25.3466L24.25 25.3335H19.4453L14.4844 11.5054ZM23.9114 11.5054H29.3412L33.7942 25.3335H28.5729L23.9114 11.5054ZM34.3672 24.4742L31.9453 17.0262L33.4948 11.5054H38.8854L34.3672 24.4742ZM48.1753 25.3335H45.8706L42.4201 21.883V14.9559L45.8706 11.5054H48.1753V25.3335ZM49.0868 19.7866V17.3778H52.1206V14.9559H49.0868V11.5054H53.9696L57.4201 14.9559V19.7866H49.0868ZM49.0868 25.3335V22.1043H56.8212V23.6018L55.1024 25.3335H49.0868ZM68.1162 6.23193V25.3335H62.361V6.23193H68.1162ZM71.6058 14.9559H69.0277V13.2111L70.7204 11.5054H73.8714L77.335 14.9559V21.883L73.8714 25.3335H69.0277V22.1043H71.6058V14.9559ZM82.4712 8.05485H88.591L93.2264 15.7371L96.8722 9.48713V18.1851L92.7186 25.3335L82.4712 8.05485ZM97.7186 25.3335V8.05485H103.474V25.3335H97.7186ZM82.4582 25.3335V9.65641L87.8358 18.6799V25.3335H82.4582ZM117.946 25.3335V14.9559H109.756V13.2371L111.488 11.5054H120.121L123.571 14.9559V25.3335H117.946ZM117.035 17.2866V19.6824H114.066V22.1043H117.035V23.6278L115.316 25.3335H110.915L108.597 23.0548V19.5914L110.915 17.2866H117.035ZM131.663 11.5054H133.968V16.3882H140.531L143.525 19.409V22.1043L140.309 25.3335H137.769V20.1122H131.546L128.551 17.2346V14.6043L131.663 11.5054ZM134.307 22.7944H136.859V25.3335L130.934 25.3204L128.538 22.4819V21.3751H134.307V22.7944ZM137.769 14.0444H134.879V11.5054H140.999L143.056 13.5627V15.1252H137.769V14.0444ZM154.183 21.883H157.984V25.3335H151.891L148.427 21.883V14.9559H147.281V11.5054H148.427V10.008L154.183 8.05485V21.883ZM155.093 14.9559V11.5054H158.192V14.9559H155.093ZM168.316 25.3335H166.011L162.56 21.883V14.9559L166.011 11.5054H168.316V25.3335ZM169.227 19.7866V17.3778H172.261V14.9559H169.227V11.5054H174.109L177.56 14.9559V19.7866H169.227ZM169.227 25.3335V22.1043H176.961V23.6018L175.243 25.3335H169.227ZM191.629 14.9559H189.181V13.4455L191.108 11.5054H194.597L197.397 14.7346V18.3152H191.629V14.9559ZM182.501 25.3335V11.5054H188.256V25.3335H182.501Z" fill="#fff"/><path d="M194.896 42.7878C195.387 42.6982 195.648 42.3149 195.54 41.8753C194.217 36.5662 196.288 32.1588 200.663 29.876L206.128 37.1358C206.173 37.1921 206.173 37.2429 206.109 37.2782C206.059 37.3114 206.011 37.2937 205.957 37.264L203.856 35.97C202.487 35.132 201.081 35.2758 200.225 36.2214C199.259 37.2985 199.615 38.625 201.151 39.6905L207.259 43.8697C211.872 47.0276 216.389 47.5248 220.668 45.3204C225.788 42.6926 226.939 37.8966 223.184 32.9052L221.428 30.5805C219.589 28.1168 217.183 27.365 214.917 28.4933C214.047 27.8561 212.959 27.7604 211.952 28.273C211.604 28.4542 211.288 28.694 210.999 28.9801C210.055 28.2912 208.857 28.1744 207.797 28.7081C207.513 28.854 207.257 29.0461 207.023 29.2604L204.353 25.7222C203.341 24.3716 201.645 24.003 200.213 24.7345C198.771 25.4805 198.428 26.891 199.44 28.2416L199.628 28.491C194.653 31.1088 192.12 36.2354 193.768 42.1276C193.889 42.5649 194.419 42.8752 194.896 42.7878ZM219.616 43.824C216.241 45.5698 212.6 45.5186 208.389 42.6402L202.288 38.4852C201.637 38.0546 201.499 37.5565 201.855 37.1456C202.187 36.7512 202.797 36.7698 203.379 37.11L207.453 39.5025C208.14 39.9021 208.633 39.8756 209.059 39.6568C209.563 39.4004 209.66 38.8525 209.288 38.3656L200.98 27.3157C200.632 26.8629 200.757 26.3614 201.247 26.1072C201.749 25.8509 202.323 26.0021 202.671 26.4548L208.604 34.3386C208.887 34.713 209.46 34.8134 209.885 34.5946C210.296 34.378 210.417 33.9152 210.14 33.553L208.001 30.7049C208.155 30.5161 208.38 30.3161 208.624 30.189C209.231 29.8785 209.852 30.0473 210.273 30.6028L212.147 33.0865C212.432 33.4729 212.999 33.549 213.411 33.3325C213.811 33.1302 213.981 32.6852 213.679 32.2886L212.159 30.2821C212.309 30.081 212.533 29.881 212.779 29.754C213.384 29.4434 214.007 29.6124 214.427 30.1678L215.672 31.8244C215.975 32.2208 216.541 32.2969 216.952 32.0802C217.353 31.8781 217.505 31.423 217.221 31.0365L216.289 29.8129C217.373 29.2626 218.72 29.914 219.993 31.6169L221.464 33.5549C224.683 37.8441 223.895 41.6196 219.616 43.824Z" fill="#DFF206"/></symbol><symbol viewBox="0 0 30 40" fill="none" id="svg-mark"><path d="M15 40C15 40 30 25.785 30 15C30 11.0218 28.4196 7.20644 25.6066 4.3934C22.7936 1.58035 18.9782 0 15 0C11.0218 0 7.20644 1.58035 4.3934 4.3934C1.58035 7.20644 5.92805e-08 11.0218 0 15C0 25.785 15 40 15 40ZM15 22.5C13.0109 22.5 11.1032 21.7098 9.6967 20.3033C8.29018 18.8968 7.5 16.9891 7.5 15C7.5 13.0109 8.29018 11.1032 9.6967 9.6967C11.1032 8.29018 13.0109 7.5 15 7.5C16.9891 7.5 18.8968 8.29018 20.3033 9.6967C21.7098 11.1032 22.5 13.0109 22.5 15C22.5 16.9891 21.7098 18.8968 20.3033 20.3033C18.8968 21.7098 16.9891 22.5 15 22.5Z" fill="#fff"/></symbol><symbol viewBox="0 0 35 35" fill="none" id="svg-odnoklaniki"><path d="M14.7896 12.1308C14.7844 11.5947 14.9385 11.0692 15.2323 10.6207C15.5261 10.1723 15.9464 9.82112 16.4399 9.61169C16.9334 9.40227 17.478 9.34401 18.0046 9.4443C18.5313 9.54459 19.0163 9.79891 19.3983 10.1751C19.7803 10.5512 20.0421 11.0323 20.1505 11.5573C20.2589 12.0823 20.2091 12.6277 20.0073 13.1244C19.8055 13.6211 19.4609 14.0468 19.017 14.3474C18.5732 14.6481 18.0501 14.8103 17.514 14.8135C17.1589 14.8164 16.8067 14.7493 16.4776 14.616C16.1485 14.4827 15.8489 14.2859 15.5959 14.0367C15.3428 13.7876 15.1414 13.491 15.0031 13.164C14.8647 12.837 14.7922 12.4859 14.7896 12.1308Z" fill="#fff"/><path d="M30.2273 0H4.77273C3.50692 0 2.29296 0.502839 1.3979 1.3979C0.502839 2.29296 0 3.50692 0 4.77273L0 30.2273C0 31.4931 0.502839 32.707 1.3979 33.6021C2.29296 34.4972 3.50692 35 4.77273 35H30.2273C31.4931 35 32.707 34.4972 33.6021 33.6021C34.4972 32.707 35 31.4931 35 30.2273V4.77273C35 3.50692 34.4972 2.29296 33.6021 1.3979C32.707 0.502839 31.4931 0 30.2273 0ZM17.5219 6.5625C18.6167 6.56604 19.6859 6.89411 20.5943 7.50521C21.5027 8.11632 22.2095 8.98304 22.6253 9.99579C23.0412 11.0085 23.1475 12.1219 22.9307 13.195C22.714 14.2682 22.1839 15.2529 21.4075 16.0249C20.6311 16.7968 19.6433 17.3212 18.5689 17.5318C17.4946 17.7424 16.3819 17.6297 15.3715 17.208C14.3612 16.7864 13.4985 16.0746 12.8927 15.1627C12.2868 14.2508 11.9649 13.1798 11.9676 12.0849C11.9697 11.3576 12.115 10.6379 12.3953 9.96672C12.6755 9.29557 13.0852 8.6862 13.601 8.17339C14.1168 7.66058 14.7285 7.25438 15.4012 6.97799C16.074 6.70159 16.7946 6.56041 17.5219 6.5625ZM23.7224 19.8088C23.0452 20.4925 22.2276 21.0211 21.3261 21.358C20.4481 21.6734 19.5343 21.8785 18.6057 21.9685C18.7449 22.1196 18.8045 22.1952 18.9 22.2827C20.1588 23.5474 21.4236 24.8082 22.6784 26.079C22.8783 26.2607 23.0139 26.5024 23.0648 26.7677C23.1157 27.0331 23.0792 27.3077 22.9608 27.5506C22.8395 27.8163 22.643 28.0406 22.3956 28.1957C22.1482 28.3509 21.8607 28.4301 21.5688 28.4236C21.2273 28.389 20.9114 28.2271 20.6838 27.9702C19.7332 27.0136 18.7648 26.075 17.8341 25.1006C17.5636 24.8162 17.4364 24.8699 17.1938 25.1165C16.2372 26.1108 15.2648 27.0693 14.2884 28.0338C14.1072 28.235 13.8641 28.3701 13.5976 28.4176C13.3311 28.4651 13.0563 28.4225 12.8168 28.2963C12.5568 28.1755 12.3374 27.982 12.185 27.7392C12.0325 27.4964 11.9536 27.2148 11.9577 26.9281C11.9869 26.5732 12.1522 26.2433 12.419 26.0074C13.6666 24.7625 14.9108 23.5163 16.1517 22.2688C16.2352 22.1852 16.3108 22.0977 16.4321 21.9705C14.7358 21.7935 13.2065 21.3739 11.898 20.3517C11.7316 20.2274 11.5716 20.0947 11.4187 19.954C10.846 19.4051 10.7884 18.7747 11.2418 18.1244C11.6295 17.5696 12.2798 17.4205 12.958 17.7386C13.0858 17.8042 13.2082 17.88 13.3239 17.9653C14.5367 18.789 15.9659 19.2356 17.4319 19.249C18.8979 19.2625 20.3351 18.8422 21.5628 18.0409C21.7968 17.8495 22.0675 17.708 22.3582 17.6253C22.6284 17.5464 22.9173 17.5603 23.1786 17.6648C23.44 17.7694 23.6588 17.9585 23.8 18.202C24.1679 18.7847 24.1639 19.3554 23.7224 19.8088Z" fill="#fff"/></symbol><symbol viewBox="0 0 35 35" fill="none" id="svg-phone"><path d="M31.5707 23.8675L26.6218 23.3025C26.0399 23.2341 25.4501 23.2985 24.8967 23.4909C24.3432 23.6832 23.8406 23.9985 23.4265 24.413L19.8415 27.998C14.3105 25.185 9.8148 20.6893 7.00179 15.1583L10.6063 11.5538C11.4441 10.716 11.8532 9.547 11.7168 8.35849L11.1518 3.44861C11.0413 2.49815 10.5852 1.6215 9.87025 0.985578C9.15528 0.349654 8.23142 -0.00113445 7.27456 2.75633e-06H3.90389C1.70224 2.75633e-06 -0.129228 1.83147 0.00715728 4.03312C1.03979 20.6722 14.3471 33.96 30.9667 34.9927C33.1683 35.129 34.9998 33.2976 34.9998 31.0959V27.7253C35.0193 25.7574 33.5385 24.1013 31.5707 23.8675Z" fill="#fff"/></symbol><symbol viewBox="0 0 35 35" fill="none" id="svg-vk"><path d="M22.8778 0H12.1398C2.33275 0 0 2.33275 0 12.1222V22.8602C0 32.6655 2.31525 35 12.1222 35H22.8602C32.6655 35 35 32.6847 35 22.8778V12.1398C35 2.33275 32.6847 0 22.8778 0ZM28.2555 24.9725H25.7023C24.7362 24.9725 24.4457 24.1903 22.7132 22.4578C21.2013 21 20.5625 20.818 20.1793 20.818C19.6508 20.818 19.5055 20.9632 19.5055 21.693V23.989C19.5055 24.6103 19.3043 24.9743 17.682 24.9743C16.1076 24.8684 14.5809 24.3901 13.2275 23.5787C11.8742 22.7672 10.733 21.6459 9.898 20.307C7.91555 17.8395 6.53615 14.9435 5.8695 11.8492C5.8695 11.466 6.01475 11.1195 6.7445 11.1195H9.296C9.95225 11.1195 10.1885 11.4117 10.4457 12.0855C11.6847 15.7325 13.7987 18.9035 14.6562 18.9035C14.9852 18.9035 15.1288 18.7582 15.1288 17.9375V14.182C15.0203 12.4688 14.1102 12.3235 14.1102 11.704C14.1219 11.5406 14.1968 11.3882 14.319 11.2791C14.4412 11.1699 14.6011 11.1127 14.7648 11.1195H18.7757C19.3235 11.1195 19.5055 11.3925 19.5055 12.0487V17.1168C19.5055 17.6645 19.7418 17.8465 19.9062 17.8465C20.2353 17.8465 20.489 17.6645 21.091 17.0625C22.384 15.4857 23.4404 13.7289 24.227 11.8475C24.3074 11.6215 24.4595 11.428 24.6602 11.2966C24.8608 11.1651 25.099 11.103 25.3382 11.1195H27.8915C28.6562 11.1195 28.819 11.5028 28.6562 12.0487C27.7279 14.1285 26.5791 16.1027 25.2297 17.9375C24.955 18.3575 24.8447 18.5763 25.2297 19.068C25.4835 19.4513 26.3778 20.1985 26.9797 20.909C27.8546 21.7816 28.5811 22.7912 29.1305 23.898C29.3493 24.6085 28.9835 24.9725 28.2555 24.9725Z" fill="#fff"/></symbol><symbol viewBox="0 0 35 25" fill="none" id="svg-you-tube"><path d="M14 17.75L23.0825 12.5L14 7.25V17.75ZM34.23 4.0475C34.4575 4.87 34.615 5.9725 34.72 7.3725C34.8425 8.7725 34.895 9.98 34.895 11.03L35 12.5C35 16.3325 34.72 19.15 34.23 20.9525C33.7925 22.5275 32.7775 23.5425 31.2025 23.98C30.38 24.2075 28.875 24.365 26.565 24.47C24.29 24.5925 22.2075 24.645 20.2825 24.645L17.5 24.75C10.1675 24.75 5.6 24.47 3.7975 23.98C2.2225 23.5425 1.2075 22.5275 0.77 20.9525C0.5425 20.13 0.385 19.0275 0.28 17.6275C0.1575 16.2275 0.105 15.02 0.105 13.97L0 12.5C0 8.6675 0.28 5.85 0.77 4.0475C1.2075 2.4725 2.2225 1.4575 3.7975 1.02C4.62 0.7925 6.125 0.635 8.435 0.53C10.71 0.4075 12.7925 0.355 14.7175 0.355L17.5 0.25C24.8325 0.25 29.4 0.53 31.2025 1.02C32.7775 1.4575 33.7925 2.4725 34.23 4.0475Z" fill="#fff"/></symbol></svg>